
<svg width="1080" height="1080" viewBox="0 0 1080 1080" fill="none" xmlns="http://www.w3.org/2000/svg">
<path d="M507.029 738.281V931.724C507.029 973.082 497.497 1005.03 478.661 1027.57C463.909 1045.29 444.846 1053.17 420.789 1055.8H339.769C315.486 1053.17 296.422 1045.29 281.444 1027.57C262.38 1005.03 252.849 973.082 252.849 931.724V738.5H339.088V931.505C339.088 933.255 339.088 935.225 339.315 936.975C339.315 937.851 339.542 938.726 339.542 939.601C339.542 940.477 339.542 941.352 339.769 942.227C339.996 943.54 340.223 944.853 340.45 945.947C340.45 946.385 340.45 946.823 340.677 947.26C340.904 948.136 341.358 949.011 341.585 949.886C341.812 950.543 342.039 951.418 342.266 952.075C342.493 952.512 342.493 952.731 342.72 953.169C344.989 958.858 348.393 963.891 352.932 967.83C359.741 973.957 379.939 974.832 379.939 974.832C379.939 974.832 399.91 973.957 406.946 967.611C411.258 963.453 414.662 958.639 417.158 952.95C417.385 952.512 417.385 952.293 417.612 951.856C417.839 951.199 418.066 950.324 418.293 949.667C418.747 948.792 418.974 947.917 419.201 947.042C419.201 946.604 419.428 946.166 419.428 945.729C419.655 944.416 419.881 943.321 420.108 942.009C420.108 941.133 420.335 940.258 420.335 939.383C420.335 938.507 420.562 937.632 420.562 936.757C420.789 935.006 420.789 933.255 420.789 931.286V738.5L507.029 738.281Z" fill="white"/>
<path d="M1054.88 914.218L955.702 768.698L1050.79 614.863C1053.52 610.487 1050.11 605.016 1044.89 605.016H964.78C962.283 605.016 960.014 606.329 958.652 608.517L910.539 697.58L855.618 608.299C854.484 606.329 852.214 605.016 849.718 605.016H770.286C764.84 605.016 761.662 610.924 764.613 615.082L861.746 757.538L759.166 912.029C756.216 916.406 759.62 922.095 764.84 922.095H840.867C840.867 922.095 845.406 921.001 846.767 919.032L906.454 826.25L963.872 919.032C965.007 921.001 969.773 924.284 969.773 924.284H1048.98C1054.65 924.284 1057.83 918.375 1054.88 914.218Z" fill="white"/>
<path d="M504.462 605.124C480.178 607.75 461.115 615.628 446.136 633.353C427.073 655.892 417.541 687.84 417.541 729.198V922.422H503.781V729.417C503.781 727.448 503.781 725.697 504.008 723.947C504.008 723.071 504.235 722.196 504.235 721.321C504.235 720.445 504.462 719.57 504.462 718.695C504.689 717.382 504.915 716.288 505.142 714.975C505.142 714.537 505.369 714.099 505.369 713.662C505.596 712.786 505.823 711.911 506.277 711.036C506.504 710.379 506.731 709.504 506.958 708.848C507.185 708.41 507.185 708.191 507.412 707.753C509.681 702.064 513.086 697.25 517.398 693.092C526.249 684.777 538.731 680.619 554.844 680.4C570.957 680.619 583.212 684.777 592.29 693.092C596.602 697.031 600.006 702.064 602.276 707.753C602.503 708.191 602.503 708.41 602.73 708.848C602.957 709.504 603.183 710.379 603.41 711.036C603.637 711.911 604.091 712.786 604.318 713.662C604.545 714.099 604.545 714.537 604.545 714.975C604.772 716.069 604.999 717.382 605.226 718.695C605.453 719.57 605.453 720.445 605.453 721.321C605.453 722.196 605.68 723.071 605.68 723.947C605.907 725.697 605.907 727.667 605.907 729.417V918.046C605.907 920.453 607.949 922.422 610.446 922.422H689.877C692.374 922.422 694.416 920.453 694.416 918.046V729.198C694.416 687.84 684.884 655.892 665.821 633.353C650.842 615.628 631.779 607.75 607.495 605.124H504.462Z" fill="white"/>
<path d="M249.826 922.422V611.689C249.826 607.969 252.776 605.124 256.635 605.124H329.258C333.116 605.124 336.066 607.969 336.066 611.689V922.422H249.826ZM249.826 554.794V484.769C249.826 481.049 252.776 478.205 256.635 478.205H329.258C333.116 478.205 336.066 481.049 336.066 484.769V554.794C336.066 558.514 333.116 561.359 329.258 561.359H256.635C252.776 561.359 249.826 558.514 249.826 554.794Z" fill="white"/>
<path d="M145.431 478.205C149.289 478.205 152.24 481.049 152.24 484.77V817.385C152.24 824.826 154.736 830.953 159.502 835.11C164.268 839.487 186.736 841.456 195.814 841.456H204.438C208.296 841.456 211.246 844.301 211.246 848.021V915.857C211.246 919.577 208.296 922.422 204.438 922.422H149.063C122.737 922.422 102.085 914.982 87.5599 900.321C73.0354 885.659 66 864.871 66 838.174V484.77C66 481.049 68.9503 478.205 72.8084 478.205H145.431Z" fill="white"/>
<path d="M736.291 197.873L670.022 33.7531C669.114 31.1272 666.391 29.5954 663.668 29.5954H595.584C590.818 29.5954 587.414 34.1908 589.229 38.5673L702.702 320.416C703.383 321.947 703.383 323.479 702.702 325.011L685.908 371.84C682.504 381.03 677.738 387.595 671.384 391.315C665.029 395.254 657.54 397.224 648.462 397.224H636.207C632.349 397.224 629.399 400.068 629.399 403.788V471.624C629.399 475.345 632.349 478.189 636.207 478.189H648.689C674.561 478.189 694.986 474.032 709.511 465.497C724.035 456.963 735.61 441.864 743.78 419.981L887.21 36.1602C888.799 31.7837 885.622 27.4072 880.856 27.4072H813.906C810.956 27.4072 808.46 29.1578 807.552 31.7837L749 197.654C747.184 203.562 738.787 203.562 736.291 197.873Z" fill="#10B981"/>
<path d="M513.883 61.3252C494.365 37.2543 466.678 25 430.82 25C410.622 25 392.239 30.4707 375.672 41.412C359.786 51.6968 346.85 66.3582 336.637 84.9584C332.552 76.2054 327.786 68.3276 322.34 61.3252C303.049 37.2543 275.815 25 240.412 25C220.214 25 202.966 30.2518 188.441 40.5367C177.094 48.6332 167.335 59.5746 159.165 72.923V33.9719C159.165 30.2518 156.214 27.4071 152.356 27.4071H80.1873C76.3292 27.4071 73.3789 30.2518 73.3789 33.9719V338.14C73.3789 341.86 76.3292 344.705 80.1873 344.705H152.81C156.668 344.705 159.619 341.86 159.619 338.14V153.451C159.846 137.696 164.158 125.66 173.009 116.907C181.859 108.154 194.115 103.996 210.228 103.996C227.703 103.996 241.32 109.029 250.624 119.095C259.929 129.161 264.695 143.604 264.014 161.985V340.329C264.014 344.049 266.965 346.893 270.823 346.893H345.715C349.573 346.893 352.524 344.049 352.524 340.329V161.11V161.329C352.524 143.604 357.062 129.818 365.913 120.189C374.991 110.561 387.473 105.747 404.267 105.747C421.288 105.747 433.997 110.78 443.302 120.846C452.607 130.912 457.146 145.354 457.146 163.736V340.329C457.146 344.049 460.096 346.893 463.954 346.893H536.577C540.435 346.893 543.386 344.049 543.386 340.329V163.298C543.386 119.752 533.627 85.6149 513.883 61.3252Z" fill="#10B981"/>
</svg>
