
<svg width="80" height="26" viewBox="0 0 80 26" fill="none" xmlns="http://www.w3.org/2000/svg">
<path d="M55.5504 11.595V20.0849C55.5504 21.9 55.147 23.3022 54.3499 24.2914C53.7257 25.0694 52.9189 25.4151 51.9009 25.5304H48.4723C47.4446 25.4151 46.6379 25.0694 46.004 24.2914C45.1973 23.3022 44.7939 21.9 44.7939 20.0849V11.6046H48.4435V20.0753C48.4435 20.1521 48.4435 20.2386 48.4531 20.3154C48.4531 20.3538 48.4627 20.3922 48.4627 20.4306C48.4627 20.4691 48.4627 20.5075 48.4723 20.5459C48.4819 20.6035 48.4915 20.6611 48.5011 20.7092C48.5011 20.7284 48.5011 20.7476 48.5107 20.7668C48.5203 20.8052 48.5395 20.8436 48.5491 20.882C48.5587 20.9108 48.5683 20.9493 48.5779 20.9781C48.5875 20.9973 48.5875 21.0069 48.5971 21.0261C48.6932 21.2758 48.8372 21.4967 49.0293 21.6696C49.3174 21.9385 50.1722 21.9769 50.1722 21.9769C50.1722 21.9769 51.0173 21.9385 51.3151 21.6599C51.4975 21.4775 51.6416 21.2662 51.7472 21.0165C51.7568 20.9973 51.7568 20.9877 51.7664 20.9685C51.776 20.9397 51.7857 20.9012 51.7953 20.8724C51.8145 20.834 51.8241 20.7956 51.8337 20.7572C51.8337 20.738 51.8433 20.7188 51.8433 20.6996C51.8529 20.6419 51.8625 20.5939 51.8721 20.5363C51.8721 20.4979 51.8817 20.4595 51.8817 20.421C51.8817 20.3826 51.8913 20.3442 51.8913 20.3058C51.9009 20.229 51.9009 20.1521 51.9009 20.0657V11.6046L55.5504 11.595Z" fill="#202020"/>
<path d="M78.7341 19.3165L74.5371 12.9299L78.5612 6.17827C78.6764 5.98619 78.5324 5.74609 78.3115 5.74609H74.9213C74.8156 5.74609 74.7196 5.80372 74.662 5.89976L72.6259 9.80858L70.3018 5.89015C70.2537 5.80372 70.1577 5.74609 70.0521 5.74609H66.6907C66.4602 5.74609 66.3257 6.0054 66.4506 6.18788L70.5611 12.4401L66.2201 19.2205C66.0952 19.4126 66.2393 19.6623 66.4602 19.6623H69.6775C69.6775 19.6623 69.8696 19.6143 69.9272 19.5278L72.4531 15.4557L74.8829 19.5278C74.9309 19.6143 75.1326 19.7583 75.1326 19.7583H78.4844C78.7245 19.7583 78.8589 19.499 78.7341 19.3165Z" fill="#202020"/>
<path d="M55.569 5.74609C54.5413 5.86134 53.7346 6.20709 53.1007 6.98501C52.294 7.97422 51.8906 9.3764 51.8906 11.1916V19.6719H55.5401V11.2012C55.5401 11.1147 55.5401 11.0379 55.5497 10.9611C55.5497 10.9226 55.5593 10.8842 55.5593 10.8458C55.5593 10.8074 55.569 10.769 55.569 10.7306C55.5786 10.6729 55.5882 10.6249 55.5978 10.5673C55.5978 10.5481 55.6074 10.5289 55.6074 10.5097C55.617 10.4713 55.6266 10.4328 55.6458 10.3944C55.6554 10.3656 55.665 10.3272 55.6746 10.2984C55.6842 10.2792 55.6842 10.2696 55.6938 10.2504C55.7898 10.0007 55.9339 9.78937 56.1164 9.6069C56.4909 9.24194 57.0192 9.05947 57.701 9.04987C58.3829 9.05947 58.9015 9.24194 59.2857 9.6069C59.4682 9.77977 59.6122 10.0007 59.7083 10.2504C59.7179 10.2696 59.7179 10.2792 59.7275 10.2984C59.7371 10.3272 59.7467 10.3656 59.7563 10.3944C59.7659 10.4328 59.7851 10.4713 59.7947 10.5097C59.8043 10.5289 59.8043 10.5481 59.8043 10.5673C59.8139 10.6153 59.8235 10.6729 59.8331 10.7306C59.8427 10.769 59.8427 10.8074 59.8427 10.8458C59.8427 10.8842 59.8523 10.9226 59.8523 10.9611C59.8619 11.0379 59.8619 11.1243 59.8619 11.2012V19.4798C59.8619 19.5854 59.9484 19.6719 60.054 19.6719H63.4154C63.5211 19.6719 63.6075 19.5854 63.6075 19.4798V11.1916C63.6075 9.3764 63.2041 7.97422 62.3974 6.98501C61.7635 6.20709 60.9568 5.86134 59.9292 5.74609H55.569Z" fill="#202020"/>
<path d="M44.7939 19.6719V6.03421C44.7939 5.87095 44.9188 5.74609 45.0821 5.74609H48.1553C48.3186 5.74609 48.4435 5.87095 48.4435 6.03421V19.6719H44.7939ZM44.7939 3.53718V0.463901C44.7939 0.300633 44.9188 0.175781 45.0821 0.175781H48.1553C48.3186 0.175781 48.4435 0.300633 48.4435 0.463901V3.53718C48.4435 3.70044 48.3186 3.8253 48.1553 3.8253H45.0821C44.9188 3.8253 44.7939 3.70044 44.7939 3.53718Z" fill="#202020"/>
<path d="M40.376 0.175781C40.5393 0.175781 40.6642 0.300633 40.6642 0.463901V15.062C40.6642 15.3885 40.7698 15.6574 40.9715 15.8399C41.1732 16.032 42.124 16.1184 42.5081 16.1184H42.8731C43.0363 16.1184 43.1612 16.2433 43.1612 16.4065V19.3838C43.1612 19.547 43.0363 19.6719 42.8731 19.6719H40.5297C39.4156 19.6719 38.5417 19.3453 37.927 18.7019C37.3124 18.0584 37.0146 17.146 37.0146 15.9743V0.463901C37.0146 0.300633 37.1395 0.175781 37.3028 0.175781H40.376Z" fill="#202020"/>
<path d="M28.6682 13.2276L25.8638 6.02461C25.8254 5.90936 25.7102 5.84213 25.5949 5.84213H22.7137C22.5121 5.84213 22.368 6.04382 22.4448 6.2359L27.2468 18.6058C27.2756 18.6731 27.2756 18.7403 27.2468 18.8075L26.5361 20.8628C26.3921 21.2661 26.1904 21.5543 25.9215 21.7175C25.6526 21.8904 25.3356 21.9768 24.9515 21.9768H24.4329C24.2696 21.9768 24.1447 22.1017 24.1447 22.265V25.2422C24.1447 25.4055 24.2696 25.5303 24.4329 25.5303H24.9611C26.0559 25.5303 26.9203 25.3478 27.5349 24.9733C28.1496 24.5987 28.6394 23.936 28.9851 22.9756L35.0549 6.13025C35.1221 5.93817 34.9876 5.74609 34.7859 5.74609H31.9528C31.8279 5.74609 31.7223 5.82293 31.6839 5.93817L29.206 13.218C29.1292 13.4773 28.7739 13.4773 28.6682 13.2276Z" fill="#10B981"/>
<path d="M19.2566 7.23464C18.4306 6.1782 17.2589 5.64038 15.7415 5.64038C14.8868 5.64038 14.1088 5.88048 13.4077 6.36068C12.7355 6.81207 12.188 7.45553 11.7559 8.27187C11.583 7.88771 11.3813 7.54197 11.1508 7.23464C10.3345 6.1782 9.18199 5.64038 7.68377 5.64038C6.82901 5.64038 6.09911 5.87088 5.48446 6.32226C5.00426 6.67761 4.59129 7.15781 4.24554 7.74365V6.03414C4.24554 5.87088 4.12069 5.74602 3.95742 5.74602H0.903354C0.740086 5.74602 0.615234 5.87088 0.615234 6.03414V19.3837C0.615234 19.547 0.740086 19.6718 0.903354 19.6718H3.97663C4.1399 19.6718 4.26475 19.547 4.26475 19.3837V11.2779C4.27435 10.5864 4.45683 10.0582 4.83139 9.67406C5.20594 9.2899 5.72456 9.10742 6.40644 9.10742C7.14595 9.10742 7.72219 9.32831 8.11595 9.7701C8.50971 10.2119 8.7114 10.8457 8.68258 11.6525V19.4797C8.68258 19.643 8.80744 19.7678 8.9707 19.7678H12.14C12.3033 19.7678 12.4281 19.643 12.4281 19.4797V11.6141V11.6237C12.4281 10.8457 12.6202 10.2407 12.9948 9.81812C13.3789 9.39554 13.9072 9.18425 14.6178 9.18425C15.3381 9.18425 15.876 9.40514 16.2697 9.84693C16.6635 10.2887 16.8556 10.9226 16.8556 11.7293V19.4797C16.8556 19.643 16.9804 19.7678 17.1437 19.7678H20.217C20.3802 19.7678 20.5051 19.643 20.5051 19.4797V11.7101C20.5051 9.79891 20.0921 8.30069 19.2566 7.23464Z" fill="#10B981"/>
</svg>
